<svg xmlns="http://www.w3.org/2000/svg" xmlns:xlink="http://www.w3.org/1999/xlink" width="750" zoomAndPan="magnify" viewBox="0 0 562.5 187.499995" height="250" preserveAspectRatio="xMidYMid meet" version="1.0"><defs><g/><clipPath id="f8c8eec157"><path d="M 245 10 L 389 10 L 389 115 L 245 115 Z M 245 10 " clip-rule="nonzero"/></clipPath><clipPath id="56afe006a9"><path d="M 266.460938 2.019531 L 390.929688 26.351562 L 369.082031 138.117188 L 244.613281 113.789062 Z M 266.460938 2.019531 " clip-rule="nonzero"/></clipPath><clipPath id="adcfdbfbe2"><path d="M 266.460938 2.019531 L 390.929688 26.351562 L 369.082031 138.117188 L 244.613281 113.789062 Z M 266.460938 2.019531 " clip-rule="nonzero"/></clipPath></defs><g clip-path="url(#f8c8eec157)"><g clip-path="url(#56afe006a9)"><g clip-path="url(#adcfdbfbe2)"><path fill="#ffffff" d="M 383 37.84375 C 383.007812 37.84375 383.011719 37.855469 383.015625 37.875 C 383.015625 37.957031 382.992188 38.085938 382.960938 38.152344 C 382.949219 38.175781 382.941406 38.183594 382.9375 38.183594 C 382.921875 38.179688 382.925781 38.117188 382.949219 38.011719 C 382.96875 37.902344 382.988281 37.839844 383 37.84375 Z M 308.378906 10.214844 C 308.195312 10.179688 308.058594 10.207031 307.894531 10.292969 C 307.703125 10.394531 307.644531 10.480469 307.589844 10.773438 C 307.527344 11.089844 307.550781 11.175781 307.765625 11.480469 C 307.902344 11.671875 308.160156 12.03125 308.34375 12.28125 C 308.515625 12.527344 308.773438 12.953125 308.890625 13.222656 C 309.011719 13.492188 309.191406 13.761719 309.28125 13.835938 C 309.367188 13.910156 309.429688 14.011719 309.421875 14.0625 C 309.410156 14.117188 309.457031 14.265625 309.53125 14.394531 L 309.648438 14.628906 L 309.429688 14.832031 C 309.316406 14.941406 309.203125 15.015625 309.171875 15.007812 C 309.171875 15.007812 309.167969 15.007812 309.167969 15.003906 C 308.855469 14.75 307.992188 14.246094 307.53125 14.070312 C 307.34375 13.992188 307.015625 13.863281 306.800781 13.773438 C 306.238281 13.550781 305.707031 13.269531 305.375 13.007812 C 305.210938 12.878906 304.941406 12.753906 304.765625 12.71875 C 304.503906 12.667969 304.417969 12.695312 304.226562 12.871094 C 303.945312 13.144531 303.765625 13.691406 303.886719 13.96875 C 303.980469 14.203125 305.007812 14.898438 305.367188 14.96875 C 305.488281 14.992188 305.78125 15.160156 306.011719 15.335938 C 306.238281 15.519531 306.488281 15.671875 306.550781 15.6875 C 306.613281 15.699219 306.84375 15.792969 307.050781 15.898438 C 307.261719 16.003906 307.574219 16.160156 307.757812 16.246094 C 308.035156 16.378906 308.070312 16.410156 307.960938 16.496094 C 307.902344 16.550781 307.832031 16.566406 307.734375 16.546875 C 307.6875 16.539062 307.632812 16.519531 307.570312 16.496094 C 307.230469 16.371094 304.367188 15.71875 303.109375 15.472656 C 302.824219 15.417969 302.621094 15.382812 302.550781 15.378906 C 302.117188 15.355469 302.015625 15.464844 301.898438 16.082031 C 301.765625 16.820312 301.859375 16.929688 302.839844 17.199219 C 303.285156 17.324219 304.015625 17.53125 304.46875 17.65625 C 304.917969 17.792969 305.757812 17.988281 306.34375 18.105469 L 307.394531 18.308594 L 307.25 18.460938 C 307.167969 18.542969 307.046875 18.628906 306.976562 18.648438 C 306.789062 18.691406 306.074219 18.726562 305.621094 18.707031 C 305.402344 18.699219 305.003906 18.71875 304.738281 18.769531 C 304.476562 18.808594 303.871094 18.808594 303.386719 18.769531 C 302.164062 18.667969 302.105469 18.691406 301.957031 19.285156 C 301.867188 19.679688 301.867188 19.792969 301.972656 19.976562 C 302.082031 20.160156 302.109375 20.199219 302.769531 20.328125 C 302.941406 20.363281 303.15625 20.402344 303.425781 20.453125 C 304.820312 20.703125 306.070312 20.777344 306.601562 20.640625 C 306.820312 20.585938 307.082031 20.597656 307.65625 20.710938 C 307.695312 20.71875 307.738281 20.726562 307.78125 20.738281 C 308.558594 20.894531 308.703125 20.945312 309.023438 21.195312 C 309.222656 21.347656 309.398438 21.503906 309.414062 21.550781 C 309.449219 21.636719 309.15625 22.230469 308.949219 22.476562 C 308.882812 22.570312 308.703125 22.707031 308.554688 22.796875 C 308.128906 23.050781 307.859375 23.8125 307.828125 24.871094 C 307.800781 25.808594 307.855469 26.015625 308.371094 26.117188 C 308.449219 26.132812 308.535156 26.144531 308.632812 26.15625 L 309.023438 26.207031 L 309.148438 25.65625 C 309.261719 25.089844 309.441406 24.597656 309.539062 24.542969 C 309.652344 24.480469 310.238281 23.945312 310.246094 23.890625 C 310.273438 23.757812 311.574219 23.128906 311.757812 23.160156 C 311.789062 23.167969 311.949219 23.101562 312.097656 23.015625 C 312.410156 22.828125 312.617188 22.785156 313.160156 22.765625 C 313.367188 22.765625 313.703125 22.714844 313.902344 22.671875 C 314.109375 22.621094 314.3125 22.585938 314.367188 22.59375 C 314.421875 22.605469 314.625 22.496094 314.808594 22.34375 C 315.1875 22.046875 315.351562 22.035156 317.347656 22.148438 C 318.839844 22.238281 319.210938 22.28125 321.464844 22.707031 C 321.683594 22.746094 321.886719 22.785156 322.074219 22.824219 C 323.972656 23.195312 324.53125 23.355469 325.292969 23.71875 C 325.871094 24 326.121094 24.097656 327.269531 24.539062 C 327.628906 24.671875 328.195312 24.886719 328.53125 25.015625 C 329.417969 25.371094 330.289062 25.617188 331.496094 25.855469 C 331.859375 25.925781 332.246094 25.992188 332.675781 26.066406 L 334.503906 26.367188 L 334.667969 26.585938 C 334.761719 26.710938 335.046875 27.058594 335.296875 27.371094 C 335.558594 27.683594 336.003906 28.300781 336.3125 28.753906 C 336.855469 29.5625 337.558594 30.484375 337.71875 30.589844 C 337.761719 30.621094 337.867188 30.742188 337.960938 30.855469 C 338.246094 31.25 338.578125 31.625 338.972656 32.003906 C 339.1875 32.207031 339.410156 32.464844 339.472656 32.566406 C 339.535156 32.667969 339.648438 32.761719 339.726562 32.777344 C 339.804688 32.792969 339.871094 32.878906 339.886719 32.964844 C 339.894531 33.054688 339.949219 33.15625 340.007812 33.191406 C 340.214844 33.316406 340.046875 33.726562 339.636719 34.097656 C 339.429688 34.296875 339.164062 34.566406 339.054688 34.699219 C 338.949219 34.835938 338.722656 35.0625 338.558594 35.195312 C 338.402344 35.332031 338.15625 35.539062 338.019531 35.660156 C 337.671875 35.960938 337.449219 36.117188 337.023438 36.355469 C 336.035156 36.894531 335.167969 37.441406 334.597656 37.882812 C 334.445312 38.011719 333.9375 38.390625 333.476562 38.734375 C 333.011719 39.074219 332.628906 39.386719 332.625 39.417969 C 332.613281 39.480469 332.226562 39.824219 331.832031 40.121094 C 331.699219 40.214844 331.378906 40.476562 331.125 40.695312 C 330.871094 40.910156 330.199219 41.40625 329.640625 41.800781 C 329.085938 42.183594 328.386719 42.699219 328.09375 42.941406 C 327.804688 43.179688 327.527344 43.378906 327.492188 43.382812 C 327.457031 43.390625 327.304688 43.558594 327.160156 43.753906 C 327.007812 43.945312 326.855469 44.097656 326.816406 44.089844 C 326.785156 44.082031 326.59375 44.261719 326.414062 44.480469 C 325.820312 45.1875 325.601562 45.414062 325.347656 45.597656 C 325.203125 45.699219 325.085938 45.808594 325.074219 45.855469 C 325.0625 45.925781 324.296875 46.542969 323.796875 46.882812 C 323.65625 46.980469 323.5 47.144531 323.445312 47.257812 C 323.402344 47.367188 323.289062 47.476562 323.203125 47.5 C 323.113281 47.53125 323.011719 47.609375 322.960938 47.691406 C 322.921875 47.765625 322.789062 47.832031 322.664062 47.832031 C 322.195312 47.839844 321.371094 48.414062 321.128906 48.898438 C 320.980469 49.207031 320.023438 49.925781 319.816406 49.886719 C 319.746094 49.875 319.445312 49.945312 319.140625 50.042969 C 318.710938 50.191406 318.542969 50.292969 318.355469 50.542969 C 318.113281 50.875 317.871094 51.015625 317.515625 51.03125 C 317.382812 51.039062 317.222656 51.136719 317.09375 51.308594 C 316.984375 51.453125 316.746094 51.660156 316.574219 51.761719 C 316.394531 51.867188 316.203125 51.984375 316.144531 52.023438 C 315.929688 52.167969 315.136719 52.355469 314.910156 52.3125 C 314.78125 52.285156 314.640625 52.292969 314.609375 52.335938 C 314.578125 52.371094 314.300781 52.480469 314.003906 52.589844 C 313.695312 52.6875 313.347656 52.839844 313.222656 52.925781 C 313.109375 53.015625 312.804688 53.105469 312.554688 53.132812 C 312.226562 53.167969 312.066406 53.226562 311.976562 53.359375 C 311.910156 53.453125 311.753906 53.535156 311.636719 53.546875 C 311.519531 53.550781 311.359375 53.585938 311.285156 53.628906 C 311.210938 53.679688 310.933594 53.757812 310.664062 53.820312 C 310.410156 53.878906 310.105469 54 310 54.09375 C 309.890625 54.1875 309.757812 54.269531 309.699219 54.277344 C 309.566406 54.300781 308.949219 54.648438 308.335938 55.074219 C 307.503906 55.636719 307.378906 55.734375 307.191406 55.976562 C 307.09375 56.105469 306.984375 56.210938 306.945312 56.203125 C 306.90625 56.195312 306.8125 56.292969 306.722656 56.421875 C 306.640625 56.546875 306.421875 56.796875 306.238281 56.976562 C 306.054688 57.164062 305.902344 57.332031 305.894531 57.363281 C 305.890625 57.386719 305.699219 57.652344 305.46875 57.953125 C 305.238281 58.261719 304.945312 58.722656 304.8125 58.992188 C 304.679688 59.261719 304.527344 59.546875 304.476562 59.625 C 304.292969 59.910156 303.925781 60.792969 303.871094 61.085938 C 303.839844 61.25 303.738281 61.476562 303.648438 61.59375 C 303.5625 61.699219 303.464844 61.917969 303.4375 62.066406 C 303.40625 62.21875 303.328125 62.410156 303.257812 62.492188 C 303.117188 62.65625 302.898438 63.203125 302.757812 63.734375 C 302.625 64.203125 302.527344 64.339844 302.289062 64.417969 C 302.160156 64.457031 302.058594 64.550781 302.039062 64.664062 C 302.019531 64.757812 301.90625 64.875 301.78125 64.925781 C 301.664062 64.976562 301.515625 65.113281 301.460938 65.234375 C 301.34375 65.457031 300.839844 65.910156 300.402344 66.179688 C 300.253906 66.265625 299.886719 66.507812 299.597656 66.707031 C 299.292969 66.910156 299.035156 67.074219 299.007812 67.070312 C 298.960938 67.0625 297.003906 68.375 296.390625 68.832031 C 296.203125 68.96875 295.984375 69.164062 295.910156 69.25 C 295.84375 69.34375 295.644531 69.527344 295.480469 69.660156 C 295.304688 69.796875 295.128906 69.953125 295.066406 70.015625 C 295.011719 70.078125 294.714844 70.359375 294.40625 70.636719 C 293.742188 71.238281 293.367188 71.601562 292.945312 72.101562 C 292.777344 72.300781 292.527344 72.566406 292.410156 72.671875 C 292.28125 72.789062 292.171875 72.921875 292.164062 72.960938 C 292.15625 73.011719 292.042969 73.128906 291.914062 73.234375 C 291.789062 73.335938 291.582031 73.566406 291.441406 73.734375 C 291.308594 73.914062 291.132812 74.101562 291.050781 74.152344 C 290.976562 74.203125 290.839844 74.359375 290.75 74.488281 C 290.667969 74.621094 290.566406 74.722656 290.53125 74.71875 C 290.5 74.710938 290.265625 74.914062 290.019531 75.167969 C 289.773438 75.433594 289.511719 75.679688 289.445312 75.722656 C 289.378906 75.769531 289.308594 75.878906 289.292969 75.964844 C 289.277344 76.042969 289.234375 76.109375 289.195312 76.101562 C 289.152344 76.09375 288.945312 76.277344 288.738281 76.507812 C 288.53125 76.738281 288.292969 76.953125 288.203125 76.996094 C 288.121094 77.035156 287.945312 77.175781 287.824219 77.292969 C 287.695312 77.414062 287.472656 77.554688 287.316406 77.589844 C 287.160156 77.632812 286.601562 77.945312 286.066406 78.292969 C 284.886719 79.058594 284.621094 79.199219 283.886719 79.410156 C 283.574219 79.496094 283.25 79.589844 283.179688 79.621094 C 282.691406 79.773438 281.722656 80.003906 281.546875 80.019531 C 281.265625 80.03125 280.800781 80.148438 280.730469 80.214844 C 280.699219 80.25 280.414062 80.351562 280.101562 80.441406 C 279.78125 80.535156 279.5 80.644531 279.472656 80.699219 C 279.4375 80.75 279.363281 80.785156 279.300781 80.773438 C 279.214844 80.753906 278.816406 80.859375 278.273438 81.050781 C 278.175781 81.082031 277.882812 81.164062 277.621094 81.230469 C 277.363281 81.304688 276.875 81.449219 276.535156 81.5625 C 276.199219 81.671875 275.757812 81.808594 275.566406 81.863281 C 275.367188 81.921875 274.949219 82.121094 274.644531 82.308594 C 274.335938 82.496094 274.054688 82.640625 274.015625 82.632812 C 273.921875 82.613281 272.503906 83.636719 272.132812 83.992188 C 271.96875 84.152344 271.667969 84.398438 271.476562 84.550781 C 270.667969 85.175781 270.429688 85.375 270.417969 85.445312 C 270.402344 85.515625 269.820312 85.914062 268.390625 86.8125 C 268.085938 87.007812 267.328125 87.53125 266.71875 87.96875 C 266.109375 88.410156 265.347656 88.964844 265.023438 89.195312 C 264.699219 89.429688 264.316406 89.71875 264.179688 89.847656 C 263.851562 90.136719 263.191406 90.59375 262.617188 90.925781 C 262.378906 91.0625 262.179688 91.203125 262.175781 91.226562 C 262.148438 91.363281 260.261719 92.535156 259.902344 92.644531 C 259.675781 92.71875 259.386719 92.800781 259.273438 92.839844 C 259.152344 92.878906 259 92.984375 258.945312 93.070312 C 258.84375 93.207031 258.402344 93.417969 257.679688 93.664062 C 257.59375 93.699219 257.441406 93.765625 257.347656 93.824219 C 257.253906 93.886719 257.0625 93.90625 256.917969 93.878906 C 256.785156 93.855469 256.566406 93.871094 256.449219 93.921875 C 256.289062 93.988281 255.84375 93.953125 255.433594 93.871094 C 255.050781 93.796875 254.699219 93.6875 254.628906 93.582031 C 254.574219 93.488281 254.480469 93.414062 254.417969 93.402344 C 254.363281 93.390625 254.230469 93.316406 254.121094 93.230469 C 254.015625 93.144531 253.6875 93.007812 253.394531 92.917969 C 253.101562 92.828125 252.863281 92.726562 252.871094 92.6875 C 252.878906 92.648438 252.730469 92.398438 252.550781 92.140625 C 252.273438 91.761719 252.152344 91.65625 251.933594 91.613281 C 251.933594 91.613281 251.929688 91.613281 251.929688 91.613281 C 251.773438 91.582031 251.566406 91.59375 251.464844 91.640625 C 251.367188 91.6875 251.203125 91.71875 251.097656 91.71875 C 250.953125 91.707031 250.808594 91.816406 250.542969 92.167969 C 250.25 92.539062 250.101562 92.847656 249.796875 93.707031 C 249.476562 94.621094 249.332031 95.203125 248.855469 97.570312 C 248.542969 99.101562 248.121094 100.972656 247.910156 101.738281 C 247.699219 102.492188 247.414062 103.546875 247.289062 104.078125 C 247.164062 104.605469 247.011719 105.109375 246.957031 105.207031 C 246.902344 105.292969 246.777344 105.558594 246.691406 105.785156 C 245.722656 108.234375 245.386719 110.210938 245.644531 111.863281 C 245.699219 112.183594 245.746094 112.570312 245.757812 112.71875 C 245.773438 113.035156 245.933594 113.34375 246.375 113.914062 C 246.660156 114.285156 246.703125 114.316406 247.140625 114.402344 C 247.167969 114.410156 247.195312 114.414062 247.222656 114.417969 C 247.988281 114.566406 248.554688 114.402344 248.890625 113.933594 C 249.15625 113.582031 249.46875 112.976562 249.664062 112.464844 C 249.71875 112.296875 249.902344 111.980469 250.058594 111.761719 C 250.222656 111.546875 250.445312 111.207031 250.558594 111.003906 C 250.664062 110.804688 250.867188 110.554688 250.992188 110.449219 C 251.128906 110.34375 251.246094 110.1875 251.265625 110.097656 C 251.28125 110.019531 251.324219 109.953125 251.371094 109.964844 C 251.453125 109.980469 251.851562 109.613281 252.203125 109.1875 C 252.308594 109.058594 252.414062 108.816406 252.445312 108.609375 C 252.480469 108.410156 252.617188 108.035156 252.753906 107.765625 C 252.96875 107.332031 253.015625 107.285156 253.230469 107.285156 C 253.425781 107.289062 253.496094 107.226562 253.636719 106.953125 C 253.742188 106.757812 253.9375 106.542969 254.140625 106.425781 C 254.320312 106.3125 254.472656 106.183594 254.480469 106.144531 C 254.5 106.042969 255.183594 105.351562 255.40625 105.214844 C 255.5 105.152344 255.597656 105.039062 255.609375 104.957031 C 255.625 104.878906 255.703125 104.777344 255.777344 104.734375 C 255.851562 104.691406 255.921875 104.617188 255.933594 104.5625 C 255.953125 104.457031 256.390625 104.320312 256.675781 104.316406 C 256.765625 104.316406 256.863281 104.246094 256.898438 104.15625 C 256.929688 104.0625 257.050781 103.945312 257.175781 103.902344 C 257.414062 103.800781 257.535156 103.433594 257.4375 103.042969 C 257.390625 102.855469 257.417969 102.800781 257.628906 102.644531 C 257.761719 102.546875 257.949219 102.378906 258.050781 102.277344 C 258.152344 102.171875 258.371094 101.984375 258.53125 101.867188 C 258.695312 101.75 258.910156 101.570312 259.007812 101.472656 C 259.109375 101.371094 259.265625 101.300781 259.34375 101.316406 C 259.429688 101.332031 259.507812 101.308594 259.519531 101.257812 C 259.527344 101.203125 259.621094 101.113281 259.730469 101.054688 C 259.839844 100.992188 260.007812 100.835938 260.117188 100.710938 C 260.222656 100.574219 260.378906 100.480469 260.476562 100.484375 C 260.578125 100.484375 260.722656 100.398438 260.8125 100.285156 C 260.898438 100.171875 261.039062 100.074219 261.125 100.058594 C 261.300781 100.042969 262.152344 99.5 262.171875 99.398438 C 262.1875 99.316406 262.742188 98.851562 263.25 98.480469 C 263.457031 98.332031 263.636719 98.167969 263.644531 98.121094 C 263.671875 97.976562 264.835938 97.222656 265.789062 96.726562 C 266.265625 96.480469 266.75 96.210938 266.875 96.128906 C 266.992188 96.054688 267.121094 95.996094 267.144531 96 C 267.175781 96.007812 267.589844 95.816406 268.078125 95.570312 C 268.558594 95.328125 269.046875 95.101562 269.160156 95.066406 C 269.273438 95.03125 269.4375 94.953125 269.511719 94.894531 C 269.589844 94.835938 269.796875 94.742188 269.960938 94.695312 C 270.125 94.644531 270.410156 94.535156 270.582031 94.445312 C 270.753906 94.363281 271.046875 94.253906 271.226562 94.207031 C 271.398438 94.164062 271.550781 94.105469 271.558594 94.0625 C 271.5625 94.03125 271.714844 93.972656 271.898438 93.921875 C 272.070312 93.875 272.378906 93.761719 272.578125 93.667969 C 273.171875 93.386719 273.867188 93.101562 273.929688 93.113281 C 273.96875 93.121094 274.195312 93.019531 274.441406 92.886719 C 274.679688 92.75 274.929688 92.648438 274.984375 92.660156 C 275.046875 92.671875 275.1875 92.585938 275.308594 92.476562 C 275.429688 92.359375 275.566406 92.28125 275.628906 92.292969 C 275.683594 92.300781 275.953125 92.191406 276.226562 92.039062 C 276.503906 91.886719 276.761719 91.769531 276.808594 91.78125 C 276.851562 91.785156 276.984375 91.722656 277.109375 91.632812 C 277.234375 91.539062 277.375 91.476562 277.425781 91.488281 C 277.480469 91.496094 277.710938 91.394531 277.945312 91.257812 C 278.175781 91.121094 278.390625 91.015625 278.429688 91.023438 C 278.472656 91.03125 278.652344 90.933594 278.835938 90.804688 C 279.007812 90.675781 279.304688 90.535156 279.488281 90.480469 C 279.664062 90.421875 279.816406 90.34375 279.824219 90.304688 C 279.832031 90.265625 280 90.191406 280.210938 90.132812 C 280.6875 90.003906 280.957031 89.90625 281.089844 89.816406 C 281.148438 89.777344 281.242188 89.757812 281.296875 89.765625 C 281.351562 89.777344 281.550781 89.734375 281.734375 89.660156 C 281.914062 89.589844 282.226562 89.5 282.429688 89.464844 C 282.632812 89.421875 283.042969 89.296875 283.347656 89.175781 C 283.640625 89.050781 283.929688 88.957031 283.984375 88.96875 C 284.03125 88.976562 284.128906 88.945312 284.1875 88.898438 C 284.246094 88.847656 284.511719 88.78125 284.773438 88.75 C 285.042969 88.710938 285.324219 88.652344 285.40625 88.609375 C 285.480469 88.566406 285.59375 88.539062 285.640625 88.546875 C 285.695312 88.558594 285.804688 88.546875 285.890625 88.511719 C 285.972656 88.488281 286.292969 88.402344 286.601562 88.320312 C 287.578125 88.066406 287.703125 88.015625 288.449219 87.550781 C 289.488281 86.90625 289.699219 86.789062 289.953125 86.707031 C 290.085938 86.664062 290.296875 86.542969 290.433594 86.429688 C 290.570312 86.324219 290.714844 86.238281 290.757812 86.246094 C 290.796875 86.253906 291.144531 86.0625 291.519531 85.816406 C 291.902344 85.578125 292.242188 85.378906 292.28125 85.386719 C 292.320312 85.394531 292.425781 85.359375 292.519531 85.300781 C 292.667969 85.214844 292.972656 85.109375 294.367188 84.6875 C 294.691406 84.585938 294.984375 84.460938 295.035156 84.414062 C 295.078125 84.363281 295.265625 84.285156 295.4375 84.246094 C 295.609375 84.195312 295.769531 84.136719 295.792969 84.105469 C 295.8125 84.078125 296.046875 83.96875 296.3125 83.863281 C 296.578125 83.757812 296.945312 83.605469 297.121094 83.507812 C 297.292969 83.417969 297.539062 83.292969 297.664062 83.226562 C 297.792969 83.160156 298.140625 82.972656 298.441406 82.816406 C 299.144531 82.453125 299.558594 82.203125 300.394531 81.648438 C 301.269531 81.070312 301.59375 80.878906 301.910156 80.765625 C 302.042969 80.710938 302.28125 80.589844 302.429688 80.496094 C 303.011719 80.105469 304.25 79.425781 304.546875 79.328125 C 304.714844 79.269531 305.117188 79.058594 305.425781 78.863281 C 306.160156 78.394531 306.253906 78.332031 306.382812 78.226562 C 306.632812 78.027344 307.222656 77.6875 307.367188 77.667969 C 307.460938 77.652344 307.558594 77.574219 307.597656 77.488281 C 307.640625 77.398438 307.789062 77.296875 307.929688 77.257812 C 308.066406 77.21875 308.238281 77.105469 308.304688 77.011719 C 308.375 76.910156 308.460938 76.835938 308.507812 76.84375 C 308.546875 76.851562 308.777344 76.722656 309.023438 76.550781 C 310.476562 75.554688 311.953125 74.65625 312.839844 74.226562 C 313.003906 74.144531 313.316406 73.972656 313.527344 73.84375 C 313.742188 73.71875 313.949219 73.621094 313.980469 73.625 C 314.011719 73.632812 314.171875 73.5625 314.339844 73.464844 C 314.871094 73.171875 315.734375 72.8125 315.847656 72.832031 C 315.910156 72.847656 315.996094 72.820312 316.03125 72.777344 C 316.070312 72.738281 316.261719 72.632812 316.460938 72.542969 C 316.652344 72.449219 316.761719 72.410156 316.878906 72.433594 C 316.972656 72.453125 317.066406 72.507812 317.210938 72.601562 C 317.640625 72.890625 318.574219 73.355469 318.804688 73.398438 L 318.808594 73.398438 C 318.949219 73.429688 319.417969 73.648438 319.84375 73.886719 C 320.269531 74.121094 320.746094 74.363281 320.910156 74.417969 C 321.0625 74.472656 321.511719 74.6875 321.898438 74.894531 C 322.289062 75.097656 322.757812 75.34375 322.945312 75.429688 C 323.132812 75.523438 323.523438 75.722656 323.804688 75.882812 C 324.09375 76.035156 324.726562 76.28125 325.21875 76.421875 C 325.707031 76.566406 326.425781 76.800781 326.800781 76.9375 C 327.183594 77.085938 328.199219 77.429688 329.074219 77.703125 C 329.945312 77.984375 330.933594 78.320312 331.269531 78.449219 C 331.601562 78.585938 332.28125 78.824219 332.765625 78.984375 C 334.027344 79.386719 334.339844 79.503906 334.414062 79.585938 C 334.457031 79.625 334.65625 79.730469 334.863281 79.816406 C 335.074219 79.90625 335.335938 80.039062 335.457031 80.105469 L 335.660156 80.234375 L 334.585938 80.957031 C 333.378906 81.773438 332.960938 82.085938 332.316406 82.667969 C 332.066406 82.894531 331.769531 83.121094 331.660156 83.183594 C 331.546875 83.246094 331.421875 83.359375 331.371094 83.449219 C 331.328125 83.539062 331.207031 83.65625 331.117188 83.703125 C 331.023438 83.757812 330.828125 83.96875 330.675781 84.167969 C 330.523438 84.359375 330.316406 84.578125 330.214844 84.636719 C 330.113281 84.699219 329.988281 84.847656 329.941406 84.964844 C 329.894531 85.078125 329.71875 85.3125 329.5625 85.480469 C 329.398438 85.65625 329.222656 85.875 329.171875 85.972656 C 329.113281 86.070312 328.96875 86.261719 328.835938 86.402344 C 328.710938 86.542969 328.519531 86.773438 328.425781 86.929688 C 328.324219 87.074219 328.113281 87.304688 327.957031 87.4375 C 327.808594 87.582031 327.574219 87.816406 327.445312 87.972656 C 326.996094 88.519531 326.664062 88.890625 326.332031 89.203125 C 326.140625 89.378906 325.984375 89.554688 325.976562 89.59375 C 325.96875 89.632812 325.835938 89.789062 325.667969 89.9375 C 325.507812 90.078125 325.363281 90.230469 325.355469 90.269531 C 325.347656 90.3125 325.203125 90.464844 325.042969 90.621094 C 324.875 90.777344 324.515625 91.152344 324.234375 91.460938 C 323.960938 91.769531 323.628906 92.105469 323.484375 92.210938 C 323.351562 92.308594 323.199219 92.46875 323.148438 92.546875 C 323.097656 92.636719 322.890625 92.867188 322.683594 93.058594 C 322.464844 93.246094 322.285156 93.457031 322.273438 93.527344 C 322.257812 93.609375 322.214844 93.65625 322.167969 93.648438 C 322.128906 93.640625 321.972656 93.773438 321.824219 93.941406 C 321.675781 94.121094 321.375 94.367188 321.160156 94.496094 C 320.945312 94.628906 320.609375 94.898438 320.414062 95.09375 C 320.21875 95.292969 320.019531 95.453125 319.960938 95.441406 C 319.8125 95.414062 319.578125 95.613281 319.539062 95.804688 C 319.519531 95.90625 319.351562 96.09375 319.171875 96.226562 C 318.992188 96.363281 318.828125 96.535156 318.808594 96.625 C 318.792969 96.703125 318.75 96.765625 318.71875 96.761719 C 318.679688 96.753906 318.523438 96.871094 318.355469 97.027344 C 318.195312 97.179688 317.96875 97.378906 317.851562 97.472656 C 317.726562 97.5625 317.621094 97.699219 317.605469 97.769531 C 317.570312 97.964844 316.476562 98.738281 316.308594 98.707031 C 316.300781 98.703125 316.292969 98.699219 316.289062 98.691406 C 316.25 98.585938 316.027344 98.484375 315.816406 98.441406 C 315.703125 98.421875 315.59375 98.414062 315.519531 98.4375 C 315.421875 98.476562 315.15625 98.738281 314.945312 99.027344 C 314.566406 99.550781 313.917969 100.238281 313.714844 100.355469 C 313.496094 100.472656 312.675781 101.59375 312.5625 101.917969 C 312.488281 102.148438 312.375 102.300781 312.160156 102.4375 C 311.992188 102.539062 311.820312 102.71875 311.773438 102.832031 C 311.679688 103.019531 310.960938 103.398438 310.746094 103.355469 C 310.617188 103.332031 310.332031 103.640625 310.292969 103.835938 C 310.234375 104.144531 310.433594 104.742188 310.722656 105.117188 C 311.25 105.792969 311.394531 105.957031 311.585938 106.085938 C 311.6875 106.144531 311.871094 106.269531 312 106.355469 C 312.125 106.441406 312.265625 106.519531 312.320312 106.53125 C 312.367188 106.539062 312.511719 106.65625 312.632812 106.792969 C 312.753906 106.933594 312.878906 107.046875 312.902344 107.050781 C 312.933594 107.058594 313.121094 107.183594 313.332031 107.339844 C 313.53125 107.484375 313.820312 107.652344 313.972656 107.707031 C 314.226562 107.804688 315.039062 108.28125 315.308594 108.496094 C 315.375 108.539062 315.566406 108.636719 315.746094 108.703125 C 315.921875 108.769531 316.203125 108.921875 316.367188 109.042969 C 316.726562 109.308594 317.433594 109.722656 317.578125 109.75 C 317.632812 109.761719 317.890625 109.925781 318.140625 110.105469 C 318.402344 110.292969 318.664062 110.449219 318.730469 110.460938 C 318.792969 110.476562 319.046875 110.65625 319.285156 110.855469 C 319.527344 111.058594 319.8125 111.269531 319.925781 111.324219 C 320.03125 111.367188 320.210938 111.5 320.316406 111.609375 C 320.425781 111.722656 320.664062 111.890625 320.851562 111.984375 C 321.035156 112.085938 321.332031 112.296875 321.515625 112.457031 C 321.6875 112.621094 321.941406 112.800781 322.0625 112.855469 C 322.191406 112.914062 322.445312 113.078125 322.628906 113.226562 C 322.832031 113.378906 323.136719 113.535156 323.339844 113.585938 C 323.546875 113.632812 323.722656 113.699219 323.746094 113.734375 C 323.824219 113.898438 324.644531 114.144531 326.28125 114.507812 C 326.703125 114.597656 327.035156 114.667969 327.292969 114.71875 C 327.824219 114.824219 328.039062 114.84375 328.046875 114.796875 C 328.058594 114.75 328.207031 114.738281 328.429688 114.777344 C 329.226562 114.933594 330.714844 114.742188 331.050781 114.445312 C 331.121094 114.382812 331.230469 114.289062 331.292969 114.246094 C 331.679688 113.980469 331.773438 113.800781 331.839844 113.199219 C 331.890625 112.628906 331.828125 112.066406 331.699219 112.042969 C 331.667969 112.035156 331.613281 111.941406 331.578125 111.828125 C 331.476562 111.5 331.074219 111.234375 330.1875 110.890625 C 329.875 110.765625 329.328125 110.554688 328.96875 110.417969 C 328.609375 110.277344 328.203125 110.125 328.074219 110.074219 C 327.890625 110.007812 327.828125 109.9375 327.847656 109.828125 C 327.867188 109.742188 327.792969 109.613281 327.683594 109.535156 C 327.578125 109.457031 327.488281 109.316406 327.488281 109.226562 C 327.488281 108.964844 327.394531 108.855469 327.050781 108.730469 C 326.875 108.664062 326.558594 108.480469 326.347656 108.328125 C 326.039062 108.097656 325.949219 107.972656 325.875 107.671875 C 325.824219 107.464844 325.734375 107.292969 325.671875 107.277344 C 325.609375 107.265625 325.5625 107.207031 325.574219 107.152344 C 325.585938 107.089844 325.472656 106.90625 325.324219 106.730469 C 325.175781 106.5625 325.023438 106.300781 324.984375 106.164062 C 324.933594 106.023438 324.820312 105.859375 324.71875 105.816406 C 324.601562 105.761719 324.542969 105.675781 324.558594 105.582031 C 324.578125 105.496094 324.539062 105.398438 324.480469 105.359375 C 324.421875 105.316406 324.378906 105.234375 324.394531 105.171875 C 324.40625 105.109375 324.273438 104.855469 324.09375 104.597656 C 323.75 104.113281 323.714844 103.871094 323.976562 103.917969 C 324.054688 103.933594 324.179688 103.882812 324.246094 103.796875 C 324.382812 103.636719 324.398438 103.261719 324.269531 103.238281 C 324.222656 103.226562 324.214844 103.105469 324.242188 102.953125 C 324.269531 102.8125 324.238281 102.582031 324.175781 102.457031 C 324.035156 102.199219 324.117188 101.902344 324.445312 101.425781 C 324.929688 100.738281 325.023438 100.585938 325.042969 100.480469 C 325.054688 100.417969 325.125 100.367188 325.191406 100.347656 C 325.269531 100.335938 325.339844 100.226562 325.363281 100.09375 C 325.390625 99.964844 325.433594 99.851562 325.476562 99.84375 C 325.621094 99.8125 326.085938 99.320312 326.117188 99.167969 C 326.132812 99.074219 326.1875 99.011719 326.226562 99.019531 C 326.273438 99.027344 326.320312 98.945312 326.339844 98.84375 C 326.359375 98.75 326.480469 98.582031 326.613281 98.484375 C 326.738281 98.394531 327.121094 98.066406 327.460938 97.753906 C 327.796875 97.449219 328.199219 97.105469 328.34375 97.003906 C 328.90625 96.585938 329.296875 96.257812 329.308594 96.195312 C 329.324219 96.15625 329.453125 96.074219 329.613281 96.015625 C 329.773438 95.957031 329.941406 95.839844 330 95.753906 C 330.058594 95.675781 330.21875 95.566406 330.355469 95.519531 C 330.488281 95.46875 330.613281 95.386719 330.621094 95.332031 C 330.640625 95.277344 330.8125 95.160156 331 95.074219 C 331.195312 94.988281 331.371094 94.859375 331.382812 94.796875 C 331.394531 94.730469 331.453125 94.6875 331.507812 94.695312 C 331.570312 94.707031 331.769531 94.605469 331.960938 94.472656 C 332.140625 94.34375 332.484375 94.136719 332.71875 94.027344 C 332.945312 93.914062 333.273438 93.730469 333.433594 93.621094 C 333.605469 93.515625 334.085938 93.214844 334.519531 92.96875 C 335.894531 92.164062 340.730469 88.847656 341.742188 88.007812 C 342.425781 87.441406 342.707031 87.226562 342.976562 87.054688 C 344.054688 86.382812 346.828125 84.363281 346.855469 84.222656 C 346.875 84.132812 347.664062 83.351562 347.960938 83.121094 C 348.375 82.8125 349.074219 81.972656 349.238281 81.601562 C 349.324219 81.410156 349.480469 80.800781 349.585938 80.246094 C 349.761719 79.328125 349.769531 79.199219 349.652344 78.824219 C 349.589844 78.601562 349.464844 78.3125 349.363281 78.1875 C 349.273438 78.0625 349.207031 77.9375 349.214844 77.898438 C 349.222656 77.855469 349.152344 77.792969 349.054688 77.75 C 348.957031 77.699219 348.773438 77.5 348.640625 77.292969 C 348.488281 77.070312 348.089844 76.699219 347.597656 76.324219 C 347.160156 75.992188 346.753906 75.679688 346.695312 75.625 C 346.640625 75.574219 346.304688 75.320312 345.953125 75.058594 C 345.59375 74.792969 345.121094 74.390625 344.882812 74.164062 C 344.648438 73.9375 344.328125 73.640625 344.167969 73.492188 C 344.007812 73.347656 343.664062 73.035156 343.410156 72.789062 C 343.152344 72.554688 342.875 72.320312 342.808594 72.28125 C 342.734375 72.242188 342.679688 72.175781 342.6875 72.136719 C 342.695312 72.097656 342.664062 72.058594 342.617188 72.046875 L 342.613281 72.046875 C 342.566406 72.039062 342.433594 71.921875 342.3125 71.785156 C 342.191406 71.648438 342.058594 71.53125 342.011719 71.523438 C 341.96875 71.515625 341.882812 71.425781 341.824219 71.332031 C 341.761719 71.230469 341.609375 71.085938 341.484375 71.003906 C 341.355469 70.921875 341.117188 70.710938 340.945312 70.53125 C 340.773438 70.359375 340.554688 70.167969 340.449219 70.117188 C 340.34375 70.0625 340.207031 69.9375 340.132812 69.84375 C 340.0625 69.746094 339.855469 69.585938 339.679688 69.476562 C 339.507812 69.378906 339.28125 69.195312 339.175781 69.070312 C 339.074219 68.941406 338.878906 68.773438 338.746094 68.691406 C 338.605469 68.609375 338.445312 68.496094 338.390625 68.445312 C 338.335938 68.398438 338.171875 68.269531 338.035156 68.167969 C 337.898438 68.070312 337.472656 67.765625 337.097656 67.492188 C 336.722656 67.214844 336.320312 66.914062 336.199219 66.828125 C 336.085938 66.730469 335.828125 66.535156 335.628906 66.378906 C 335.433594 66.238281 335.191406 66.011719 335.09375 65.875 C 334.996094 65.742188 334.855469 65.578125 334.785156 65.515625 C 334.707031 65.449219 334.5 65.246094 334.320312 65.0625 C 334.148438 64.890625 333.957031 64.734375 333.894531 64.71875 C 333.832031 64.707031 333.773438 64.664062 333.757812 64.628906 C 333.742188 64.585938 333.488281 64.40625 333.195312 64.226562 C 332.898438 64.046875 332.609375 63.859375 332.550781 63.808594 C 332.246094 63.527344 331.808594 63.269531 331.375 63.105469 C 331.105469 62.996094 330.859375 62.875 330.820312 62.820312 C 330.789062 62.773438 330.648438 62.707031 330.515625 62.679688 C 330.515625 62.679688 330.511719 62.679688 330.511719 62.679688 C 330.359375 62.648438 330.214844 62.554688 330.148438 62.445312 C 330.078125 62.332031 329.933594 62.242188 329.769531 62.207031 C 329.765625 62.207031 329.765625 62.207031 329.765625 62.207031 C 329.765625 62.207031 329.761719 62.207031 329.761719 62.207031 C 329.621094 62.179688 329.511719 62.117188 329.519531 62.070312 C 329.542969 61.960938 330.027344 61.691406 330.527344 61.515625 C 330.75 61.445312 331.039062 61.304688 331.167969 61.214844 C 331.292969 61.121094 331.4375 61.050781 331.484375 61.058594 C 331.527344 61.066406 331.6875 60.984375 331.839844 60.882812 C 331.992188 60.78125 332.15625 60.695312 332.203125 60.707031 C 332.25 60.714844 332.480469 60.617188 332.71875 60.492188 C 333.410156 60.132812 333.957031 59.882812 334.207031 59.832031 C 334.328125 59.800781 334.515625 59.71875 334.617188 59.648438 C 334.722656 59.578125 334.964844 59.476562 335.152344 59.425781 C 335.335938 59.367188 335.601562 59.265625 335.730469 59.199219 C 335.859375 59.125 336.054688 59.054688 336.171875 59.042969 C 336.277344 59.03125 336.425781 58.988281 336.492188 58.941406 C 336.558594 58.898438 336.792969 58.828125 337.015625 58.789062 C 337.242188 58.75 337.625 58.640625 337.863281 58.546875 C 338.109375 58.464844 338.410156 58.347656 338.535156 58.308594 C 339.007812 58.144531 339.585938 57.828125 339.722656 57.664062 C 339.796875 57.574219 339.902344 57.503906 339.949219 57.511719 C 339.996094 57.519531 340.199219 57.410156 340.390625 57.269531 C 340.574219 57.121094 340.757812 57.011719 340.78125 57.015625 C 340.816406 57.019531 340.992188 56.949219 341.175781 56.851562 C 341.367188 56.75 341.625 56.652344 341.769531 56.613281 C 341.90625 56.582031 342.144531 56.503906 342.289062 56.433594 C 342.441406 56.363281 342.765625 56.261719 343.011719 56.210938 C 343.25 56.160156 343.460938 56.082031 343.46875 56.050781 C 343.476562 56.019531 343.582031 55.984375 343.707031 55.972656 C 343.828125 55.972656 344.222656 55.894531 344.574219 55.796875 C 344.9375 55.710938 345.472656 55.605469 345.765625 55.574219 C 346.070312 55.539062 346.390625 55.480469 346.488281 55.441406 C 346.59375 55.402344 346.824219 55.355469 347.011719 55.335938 C 347.195312 55.3125 347.46875 55.25 347.609375 55.195312 C 347.761719 55.140625 348.101562 55.027344 348.375 54.933594 C 348.644531 54.84375 348.898438 54.726562 348.933594 54.667969 C 348.96875 54.609375 349.050781 54.578125 349.113281 54.589844 C 349.175781 54.601562 349.410156 54.5 349.625 54.359375 C 349.847656 54.222656 350.058594 54.113281 350.089844 54.121094 C 350.152344 54.132812 351.789062 53.246094 351.902344 53.136719 C 351.945312 53.097656 352.039062 53.09375 352.164062 53.117188 C 352.5625 53.195312 353.261719 53.558594 353.578125 53.902344 C 353.847656 54.199219 354.484375 55.117188 354.589844 55.375 C 354.671875 55.566406 354.960938 55.765625 355.175781 55.808594 C 355.25 55.820312 355.3125 55.816406 355.355469 55.792969 C 355.410156 55.761719 355.484375 55.757812 355.5625 55.773438 C 355.753906 55.8125 355.980469 55.953125 356.09375 56.136719 C 356.167969 56.257812 356.285156 56.371094 356.339844 56.382812 L 356.34375 56.382812 C 356.398438 56.394531 356.65625 56.589844 356.90625 56.816406 C 357.15625 57.046875 357.382812 57.238281 357.390625 57.238281 C 357.40625 57.242188 357.695312 57.445312 358.035156 57.691406 C 358.375 57.933594 358.671875 58.140625 358.710938 58.148438 C 358.742188 58.152344 358.925781 58.277344 359.109375 58.429688 C 359.492188 58.738281 360.957031 59.617188 361.410156 59.8125 C 361.722656 59.945312 362.269531 60.246094 362.523438 60.433594 C 362.601562 60.492188 362.921875 60.660156 363.230469 60.808594 C 363.785156 61.070312 364.542969 61.488281 364.972656 61.773438 C 365.410156 62.0625 365.785156 62.28125 366.042969 62.40625 C 366.183594 62.480469 366.640625 62.707031 367.050781 62.925781 C 367.949219 63.390625 368.4375 63.609375 368.816406 63.683594 C 369.019531 63.722656 369.1875 63.722656 369.371094 63.691406 C 369.652344 63.636719 370.390625 63.261719 370.410156 63.148438 C 370.429688 63.054688 371.800781 61.808594 372.21875 61.511719 C 372.417969 61.367188 372.589844 61.203125 372.601562 61.140625 C 372.613281 61.078125 372.746094 60.929688 372.890625 60.820312 C 373.207031 60.59375 374.015625 59.746094 374.039062 59.628906 C 374.046875 59.589844 374.136719 59.5 374.246094 59.429688 C 374.359375 59.371094 374.539062 59.191406 374.660156 59.035156 C 374.777344 58.882812 375.007812 58.632812 375.167969 58.480469 C 375.328125 58.332031 375.464844 58.171875 375.472656 58.128906 C 375.480469 58.082031 375.566406 57.984375 375.671875 57.914062 C 375.765625 57.835938 376.015625 57.570312 376.21875 57.3125 C 376.425781 57.058594 376.671875 56.753906 376.765625 56.640625 C 376.863281 56.519531 377.019531 56.308594 377.117188 56.171875 C 377.21875 56.035156 377.414062 55.777344 377.5625 55.601562 C 377.703125 55.425781 377.835938 55.21875 377.851562 55.132812 C 377.867188 55.054688 378.074219 54.730469 378.316406 54.417969 C 378.554688 54.101562 378.765625 53.773438 378.78125 53.695312 C 378.800781 53.605469 378.933594 53.378906 379.085938 53.171875 C 379.242188 52.96875 379.371094 52.757812 379.382812 52.695312 C 379.410156 52.558594 379.761719 51.921875 379.933594 51.707031 C 380.074219 51.53125 380.21875 51.246094 380.789062 50.066406 C 380.960938 49.714844 381.136719 49.402344 381.179688 49.363281 C 381.226562 49.328125 381.28125 49.210938 381.304688 49.089844 C 381.328125 48.972656 381.519531 48.695312 381.734375 48.476562 C 382.101562 48.09375 382.578125 47.578125 382.863281 47.230469 C 382.9375 47.15625 383.082031 47.035156 383.191406 46.976562 C 383.457031 46.835938 384.261719 46.054688 384.289062 45.921875 C 384.300781 45.859375 384.503906 45.570312 384.738281 45.277344 C 384.976562 44.976562 385.1875 44.65625 385.207031 44.554688 C 385.222656 44.460938 385.367188 44.191406 385.523438 43.960938 C 385.828125 43.535156 386.214844 42.507812 386.195312 42.210938 C 386.195312 42.09375 386.34375 41.820312 386.617188 41.46875 C 386.859375 41.15625 387.066406 40.832031 387.082031 40.753906 C 387.097656 40.667969 387.234375 40.429688 387.378906 40.230469 C 387.851562 39.558594 388.175781 38.632812 388.050781 38.257812 C 388.007812 38.113281 387.777344 37.980469 387.542969 37.9375 C 387.449219 37.917969 387.359375 37.914062 387.277344 37.929688 C 387.050781 37.96875 386.816406 38.277344 386.46875 39.03125 C 386.339844 39.308594 386.175781 39.5625 386.105469 39.609375 C 386.03125 39.644531 385.96875 39.714844 385.960938 39.753906 C 385.953125 39.792969 385.882812 39.867188 385.804688 39.917969 C 385.730469 39.980469 385.648438 40.09375 385.632812 40.191406 C 385.605469 40.285156 385.527344 40.441406 385.449219 40.53125 L 385.3125 40.703125 L 385.242188 40.5 C 385.175781 40.292969 385.222656 40.183594 385.691406 39.324219 C 385.804688 39.117188 385.949219 38.691406 386.023438 38.386719 C 386.09375 38.070312 386.183594 37.777344 386.222656 37.734375 C 386.328125 37.617188 386.722656 36.246094 386.710938 36 C 386.710938 35.753906 386.417969 35.476562 386.105469 35.417969 C 386.101562 35.414062 386.101562 35.414062 386.101562 35.414062 C 386.09375 35.414062 386.089844 35.414062 386.082031 35.414062 C 385.910156 35.378906 385.917969 35.363281 386.066406 35.179688 C 386.28125 34.902344 386.304688 34.652344 386.125 34.394531 C 386.023438 34.238281 385.800781 34.121094 385.570312 34.078125 C 385.425781 34.050781 385.28125 34.050781 385.15625 34.085938 C 384.941406 34.152344 384.445312 34.851562 384.191406 35.460938 C 384.082031 35.734375 383.859375 36.109375 383.710938 36.296875 C 383.558594 36.488281 383.414062 36.730469 383.390625 36.847656 C 383.363281 36.953125 383.347656 37.003906 383.34375 37.003906 C 383.335938 37 383.339844 36.953125 383.339844 36.855469 C 383.335938 36.75 383.429688 36.472656 383.539062 36.238281 C 384.300781 34.699219 384.3125 34.257812 383.617188 34.121094 C 383.613281 34.121094 383.613281 34.117188 383.609375 34.117188 C 382.960938 33.996094 382.785156 34.140625 382.324219 35.183594 C 382.222656 35.410156 382.035156 35.792969 381.90625 36.039062 C 381.769531 36.277344 381.621094 36.707031 381.566406 37 C 381.496094 37.324219 381.371094 37.667969 381.214844 37.925781 C 381.074219 38.144531 380.84375 38.535156 380.699219 38.785156 C 380.542969 39.035156 380.296875 39.34375 380.140625 39.46875 C 379.988281 39.59375 379.820312 39.742188 379.757812 39.8125 C 379.710938 39.863281 379.679688 39.890625 379.636719 39.878906 C 379.589844 39.871094 379.523438 39.824219 379.402344 39.730469 C 379.085938 39.460938 378.65625 38.914062 378.679688 38.785156 C 378.707031 38.644531 378.289062 38.21875 377.90625 38 C 377.675781 37.867188 377.300781 37.753906 376.773438 37.648438 C 376.757812 37.648438 376.742188 37.644531 376.726562 37.640625 C 375.777344 37.460938 375.621094 37.503906 375.570312 37.976562 C 375.542969 38.25 375.5625 38.28125 375.910156 38.46875 C 376.34375 38.691406 376.59375 38.945312 377.0625 39.648438 C 377.621094 40.46875 377.714844 40.667969 377.773438 41.179688 C 377.804688 41.449219 377.890625 41.808594 377.964844 41.980469 C 378.03125 42.148438 378.078125 42.363281 378.0625 42.449219 C 378 42.78125 378.113281 43.847656 378.242188 44.117188 C 378.355469 44.34375 378.355469 44.484375 378.257812 44.941406 C 378.199219 45.242188 378.097656 45.515625 378.042969 45.554688 C 377.996094 45.585938 377.9375 45.667969 377.925781 45.730469 C 377.914062 45.792969 377.835938 45.941406 377.75 46.066406 C 377.460938 46.484375 377.207031 46.921875 377.183594 47.039062 C 377.171875 47.109375 377.050781 47.277344 376.921875 47.425781 C 376.789062 47.5625 376.632812 47.777344 376.574219 47.90625 C 376.519531 48.027344 376.410156 48.179688 376.339844 48.230469 C 376.195312 48.34375 375.578125 49.09375 375.082031 49.753906 C 374.90625 49.984375 374.664062 50.273438 374.535156 50.386719 C 374.414062 50.496094 374.226562 50.707031 374.128906 50.84375 C 374.027344 50.980469 373.851562 51.167969 373.726562 51.257812 C 373.613281 51.351562 373.460938 51.503906 373.390625 51.605469 C 373.320312 51.707031 372.523438 52.316406 371.628906 52.964844 C 370.734375 53.613281 369.996094 54.179688 369.988281 54.210938 C 369.984375 54.242188 369.816406 54.375 369.628906 54.503906 C 369.433594 54.628906 369.234375 54.769531 369.175781 54.808594 C 368.609375 55.25 368.074219 55.425781 367.582031 55.332031 C 367.578125 55.332031 367.574219 55.332031 367.566406 55.332031 C 367.238281 55.265625 367.121094 55.199219 366.867188 54.910156 C 366.699219 54.722656 366.441406 54.476562 366.285156 54.355469 C 366.136719 54.234375 365.914062 53.980469 365.796875 53.785156 C 365.496094 53.300781 365.117188 52.875 364.65625 52.5 C 364.441406 52.328125 364.199219 52.136719 364.121094 52.070312 C 363.664062 51.6875 362.949219 51.175781 362.734375 51.09375 C 362.566406 51.019531 362.496094 50.929688 362.5 50.816406 C 362.503906 50.71875 362.457031 50.613281 362.398438 50.570312 C 362.34375 50.523438 362.195312 50.40625 362.066406 50.308594 C 361.945312 50.210938 361.78125 50.121094 361.695312 50.105469 L 361.691406 50.105469 C 361.613281 50.089844 361.507812 50.035156 361.453125 49.984375 C 361.300781 49.839844 361.742188 49.457031 362.003906 49.507812 C 362.449219 49.59375 362.871094 49.484375 363.046875 49.242188 C 363.148438 49.105469 363.28125 49.015625 363.359375 49.03125 C 363.4375 49.042969 363.558594 49.019531 363.625 48.972656 C 363.691406 48.929688 363.816406 48.878906 363.890625 48.859375 C 363.96875 48.851562 364.148438 48.671875 364.292969 48.46875 C 364.484375 48.203125 364.546875 48.128906 364.660156 48.152344 C 364.695312 48.160156 364.734375 48.171875 364.78125 48.195312 C 365.132812 48.332031 365.402344 48.421875 365.617188 48.460938 C 366.050781 48.546875 366.242188 48.429688 366.359375 48.09375 C 366.425781 47.925781 366.636719 47.417969 366.828125 46.96875 C 367.046875 46.46875 367.230469 45.90625 367.308594 45.496094 C 367.449219 44.757812 367.441406 44.765625 368.140625 44.695312 C 368.488281 44.652344 368.652344 44.480469 368.734375 44.042969 C 368.769531 43.902344 368.855469 43.714844 368.9375 43.617188 C 369.023438 43.519531 369.101562 43.359375 369.128906 43.257812 C 369.148438 43.164062 369.203125 43.09375 369.242188 43.101562 C 369.289062 43.109375 369.332031 43.066406 369.339844 43.011719 C 369.378906 42.816406 369.613281 42.40625 369.671875 42.417969 C 369.675781 42.417969 369.679688 42.421875 369.683594 42.429688 C 369.707031 42.484375 370.085938 42.605469 370.53125 42.714844 C 370.980469 42.816406 371.378906 42.960938 371.417969 43.015625 C 371.460938 43.078125 371.566406 43.125 371.703125 43.148438 C 372.058594 43.21875 372.59375 43.167969 372.625 43 C 372.640625 42.921875 372.691406 42.859375 372.734375 42.867188 C 372.78125 42.875 372.828125 42.800781 372.84375 42.707031 C 372.863281 42.613281 372.953125 42.480469 373.039062 42.414062 C 373.230469 42.273438 373.484375 41.417969 373.386719 41.242188 C 373.34375 41.167969 373.363281 41.027344 373.449219 40.828125 C 373.523438 40.664062 373.613281 40.402344 373.644531 40.25 C 373.695312 39.980469 373.597656 38.59375 373.507812 38.339844 C 373.488281 38.269531 373.425781 38.078125 373.382812 37.921875 C 373.339844 37.773438 373.25 37.632812 373.195312 37.621094 C 373.132812 37.609375 373.042969 37.460938 373.003906 37.296875 C 372.925781 37.003906 372.308594 36.34375 371.734375 35.941406 C 371.597656 35.839844 371.527344 35.703125 371.507812 35.460938 C 371.496094 35.269531 371.425781 34.996094 371.355469 34.851562 C 371.285156 34.699219 371.222656 34.511719 371.207031 34.429688 C 371.191406 34.335938 371.097656 34.269531 370.917969 34.234375 C 370.917969 34.234375 370.914062 34.234375 370.914062 34.234375 C 370.914062 34.234375 370.910156 34.230469 370.90625 34.230469 C 370.515625 34.15625 370.207031 33.949219 370.148438 33.726562 C 370.101562 33.515625 369.839844 33.375 369.300781 33.269531 C 369.292969 33.265625 369.285156 33.265625 369.277344 33.265625 C 369.277344 33.261719 369.273438 33.261719 369.273438 33.261719 C 369.054688 33.21875 368.914062 33.144531 368.839844 33.023438 C 368.785156 32.929688 368.609375 32.765625 368.453125 32.65625 C 368.269531 32.53125 368.171875 32.394531 368.191406 32.308594 C 368.238281 32.046875 367.960938 31.757812 367.144531 31.222656 C 367.035156 31.152344 366.785156 31.066406 366.59375 31.027344 C 366.59375 31.027344 366.589844 31.027344 366.589844 31.027344 C 366.589844 31.027344 366.585938 31.027344 366.585938 31.027344 C 366.390625 30.988281 365.886719 30.835938 365.464844 30.679688 C 365.101562 30.546875 364.746094 30.449219 364.398438 30.378906 C 364.25 30.351562 364.101562 30.328125 363.953125 30.308594 C 361.816406 30.039062 361.734375 30.03125 361.714844 30.136719 C 361.703125 30.207031 361.53125 30.230469 361.234375 30.207031 C 360.976562 30.183594 360.628906 30.191406 360.46875 30.226562 C 360.304688 30.257812 360.019531 30.292969 359.835938 30.316406 C 359.316406 30.375 358.792969 30.535156 358.429688 30.761719 C 358.25 30.875 357.949219 31.007812 357.757812 31.058594 C 357.574219 31.113281 357.351562 31.253906 357.265625 31.359375 C 357.058594 31.617188 356.5625 31.988281 356.320312 32.054688 C 356.226562 32.078125 356.066406 32.1875 355.980469 32.285156 C 355.886719 32.382812 355.679688 32.605469 355.511719 32.769531 C 355.265625 33.019531 355.1875 33.175781 355.074219 33.640625 L 354.933594 34.203125 L 354.578125 34.296875 C 354.402344 34.347656 354.308594 34.367188 354.253906 34.359375 C 354.210938 34.347656 354.1875 34.320312 354.171875 34.269531 C 354.152344 34.199219 354.039062 34.066406 353.925781 33.976562 C 353.804688 33.878906 353.6875 33.683594 353.652344 33.53125 C 353.570312 33.179688 352.789062 31.980469 352.492188 31.742188 C 352.363281 31.644531 352.261719 31.535156 352.269531 31.496094 C 352.277344 31.453125 352.160156 31.335938 352.015625 31.234375 C 351.863281 31.121094 351.730469 31.003906 351.710938 30.96875 C 351.65625 30.835938 350.933594 30.328125 350.75 30.292969 C 350.648438 30.273438 350.4375 30.132812 350.292969 29.976562 C 349.921875 29.601562 349.71875 29.464844 349.328125 29.324219 C 349.113281 29.257812 348.921875 29.125 348.828125 28.980469 C 348.730469 28.839844 348.582031 28.730469 348.449219 28.703125 C 348.445312 28.703125 348.445312 28.703125 348.445312 28.703125 C 348.304688 28.675781 348.203125 28.601562 348.167969 28.488281 C 348.136719 28.390625 347.949219 28.183594 347.738281 28.027344 C 347.53125 27.863281 347.28125 27.636719 347.164062 27.515625 C 347.054688 27.398438 346.8125 27.21875 346.625 27.117188 C 346.4375 27.023438 346.140625 26.785156 345.945312 26.601562 C 345.527344 26.175781 345.296875 26.035156 344.335938 25.578125 C 343.921875 25.378906 343.539062 25.164062 343.484375 25.097656 C 343.433594 25.03125 343.191406 24.835938 342.953125 24.660156 C 342.714844 24.492188 342.472656 24.296875 342.421875 24.230469 C 342.367188 24.167969 342.171875 24.019531 341.996094 23.910156 C 341.8125 23.792969 341.585938 23.617188 341.484375 23.507812 C 341.378906 23.40625 341.242188 23.308594 341.1875 23.296875 C 341.074219 23.273438 340.425781 22.8125 339.957031 22.4375 C 339.859375 22.351562 339.71875 22.277344 339.65625 22.265625 L 339.652344 22.265625 C 339.589844 22.253906 339.316406 22.050781 339.058594 21.824219 C 338.789062 21.589844 338.519531 21.390625 338.4375 21.375 C 338.367188 21.363281 338.28125 21.296875 338.261719 21.234375 C 338.242188 21.164062 338.042969 20.949219 337.835938 20.742188 C 337.628906 20.539062 337.382812 20.289062 337.292969 20.195312 C 337.164062 20.058594 336.902344 19.964844 336.183594 19.789062 C 335.660156 19.65625 334.972656 19.457031 334.660156 19.347656 C 333.640625 19 331.066406 18.398438 329.023438 18 C 327.816406 17.765625 326.792969 17.597656 326.390625 17.59375 C 325.734375 17.585938 324.753906 17.519531 323.828125 17.433594 C 323.386719 17.390625 322.914062 17.371094 322.777344 17.394531 C 322.644531 17.410156 322.261719 17.378906 321.929688 17.324219 C 321.597656 17.261719 321.148438 17.214844 320.917969 17.210938 C 320.695312 17.210938 320.230469 17.195312 319.898438 17.171875 C 319.566406 17.152344 319.070312 17.128906 318.800781 17.128906 C 318.59375 17.132812 318.257812 17.089844 317.957031 17.03125 C 317.859375 17.011719 317.765625 16.992188 317.683594 16.96875 C 317.042969 16.808594 316.675781 16.613281 316.378906 16.277344 C 316.117188 15.980469 315.035156 15.382812 314.191406 15.054688 C 313.773438 14.894531 313.351562 14.707031 313.246094 14.644531 C 312.96875 14.476562 311.953125 14.011719 311.78125 13.980469 C 311.625 13.949219 311.34375 13.648438 310.839844 12.953125 C 310.648438 12.695312 310.386719 12.351562 310.246094 12.183594 C 310.109375 12.011719 309.761719 11.550781 309.476562 11.152344 C 309.148438 10.6875 308.875 10.390625 308.730469 10.328125 C 308.59375 10.273438 308.480469 10.234375 308.378906 10.214844 Z M 308.378906 10.214844 " fill-opacity="1" fill-rule="nonzero"/></g></g></g><g fill="#ffffff" fill-opacity="1"><g transform="translate(41.79553, 157.933536)"><g><path d="M 5 -68.71875 L 26.328125 -68.71875 C 32.765625 -68.71875 37.898438 -67.34375 41.734375 -64.59375 C 45.566406 -61.84375 47.484375 -57.390625 47.484375 -51.234375 C 47.484375 -44.347656 44.625 -39.429688 38.90625 -36.484375 C 48.675781 -34.765625 53.5625 -28.988281 53.5625 -19.15625 C 53.5625 -13.382812 51.5625 -8.75 47.5625 -5.25 C 43.5625 -1.75 38.0625 0 31.0625 0 L 5 0 Z M 20.65625 -41.8125 L 21.90625 -41.8125 C 25.40625 -41.8125 28.015625 -42.421875 29.734375 -43.640625 C 31.453125 -44.867188 32.3125 -46.867188 32.3125 -49.640625 C 32.3125 -54.304688 28.84375 -56.640625 21.90625 -56.640625 L 20.65625 -56.640625 Z M 20.65625 -12.078125 L 25.578125 -12.078125 C 33.234375 -12.078125 37.0625 -14.628906 37.0625 -19.734375 C 37.0625 -22.796875 36.101562 -24.992188 34.1875 -26.328125 C 32.269531 -27.660156 29.398438 -28.328125 25.578125 -28.328125 L 20.65625 -28.328125 Z M 20.65625 -12.078125 "/></g></g></g><g fill="#ffffff" fill-opacity="1"><g transform="translate(93.108432, 157.933536)"><g><path d="M 5 0 L 5 -42.734375 L 19.734375 -42.734375 L 19.734375 -36.5625 L 19.90625 -36.5625 C 20.019531 -36.789062 20.203125 -37.070312 20.453125 -37.40625 C 20.703125 -37.738281 21.242188 -38.320312 22.078125 -39.15625 C 22.910156 -39.988281 23.796875 -40.734375 24.734375 -41.390625 C 25.679688 -42.054688 26.90625 -42.65625 28.40625 -43.1875 C 29.90625 -43.71875 31.429688 -43.984375 32.984375 -43.984375 C 34.597656 -43.984375 36.179688 -43.757812 37.734375 -43.3125 C 39.285156 -42.863281 40.425781 -42.421875 41.15625 -41.984375 L 42.3125 -41.3125 L 36.15625 -28.828125 C 34.320312 -30.378906 31.765625 -31.15625 28.484375 -31.15625 C 26.710938 -31.15625 25.1875 -30.765625 23.90625 -29.984375 C 22.625 -29.210938 21.71875 -28.269531 21.1875 -27.15625 C 20.664062 -26.039062 20.289062 -25.09375 20.0625 -24.3125 C 19.84375 -23.539062 19.734375 -22.929688 19.734375 -22.484375 L 19.734375 0 Z M 5 0 "/></g></g></g><g fill="#ffffff" fill-opacity="1"><g transform="translate(130.426791, 157.933536)"><g><path d="M 48.234375 -19.328125 L 17.25 -19.328125 C 17.25 -16.328125 18.21875 -14.101562 20.15625 -12.65625 C 22.101562 -11.21875 24.210938 -10.5 26.484375 -10.5 C 28.867188 -10.5 30.753906 -10.816406 32.140625 -11.453125 C 33.535156 -12.085938 35.125 -13.351562 36.90625 -15.25 L 47.5625 -9.90625 C 43.125 -2.46875 35.738281 1.25 25.40625 1.25 C 18.96875 1.25 13.441406 -0.957031 8.828125 -5.375 C 4.222656 -9.789062 1.921875 -15.109375 1.921875 -21.328125 C 1.921875 -27.546875 4.222656 -32.875 8.828125 -37.3125 C 13.441406 -41.757812 18.96875 -43.984375 25.40625 -43.984375 C 32.175781 -43.984375 37.6875 -42.023438 41.9375 -38.109375 C 46.1875 -34.191406 48.3125 -28.597656 48.3125 -21.328125 C 48.3125 -20.328125 48.285156 -19.660156 48.234375 -19.328125 Z M 17.65625 -27.484375 L 33.90625 -27.484375 C 33.570312 -29.703125 32.695312 -31.410156 31.28125 -32.609375 C 29.863281 -33.804688 28.046875 -34.40625 25.828125 -34.40625 C 23.378906 -34.40625 21.429688 -33.765625 19.984375 -32.484375 C 18.546875 -31.203125 17.769531 -29.535156 17.65625 -27.484375 Z M 17.65625 -27.484375 "/></g></g></g><g fill="#ffffff" fill-opacity="1"><g transform="translate(176.491749, 157.933536)"><g><path d="M 6.40625 -66.546875 C 8.132812 -68.273438 10.191406 -69.140625 12.578125 -69.140625 C 14.960938 -69.140625 17.015625 -68.273438 18.734375 -66.546875 C 20.460938 -64.828125 21.328125 -62.773438 21.328125 -60.390625 C 21.328125 -58.003906 20.460938 -55.945312 18.734375 -54.21875 C 17.015625 -52.5 14.960938 -51.640625 12.578125 -51.640625 C 10.191406 -51.640625 8.132812 -52.5 6.40625 -54.21875 C 4.6875 -55.945312 3.828125 -58.003906 3.828125 -60.390625 C 3.828125 -62.773438 4.6875 -64.828125 6.40625 -66.546875 Z M 5 -42.734375 L 5 0 L 19.734375 0 L 19.734375 -42.734375 Z M 5 -42.734375 "/></g></g></g><g fill="#ffffff" fill-opacity="1"><g transform="translate(197.483165, 157.933536)"><g><path d="M 46.3125 -42.734375 L 25.15625 -11.25 L 44.640625 -11.25 L 44.640625 0 L 0.421875 0 L 21.578125 -31.484375 L 3.921875 -31.484375 L 3.921875 -42.734375 Z M 46.3125 -42.734375 "/></g></g></g><g fill="#ffffff" fill-opacity="1"><g transform="translate(240.049487, 157.933536)"><g><path d="M 5 0 L 5 -71.640625 L 19.734375 -71.640625 L 19.734375 -38.234375 L 19.90625 -38.234375 C 23.738281 -42.066406 27.820312 -43.984375 32.15625 -43.984375 C 34.257812 -43.984375 36.351562 -43.703125 38.4375 -43.140625 C 40.519531 -42.585938 42.519531 -41.726562 44.4375 -40.5625 C 46.351562 -39.394531 47.90625 -37.742188 49.09375 -35.609375 C 50.289062 -33.472656 50.890625 -30.988281 50.890625 -28.15625 L 50.890625 0 L 36.15625 0 L 36.15625 -24.15625 C 36.15625 -26.375 35.445312 -28.316406 34.03125 -29.984375 C 32.613281 -31.648438 30.765625 -32.484375 28.484375 -32.484375 C 26.265625 -32.484375 24.25 -31.625 22.4375 -29.90625 C 20.632812 -28.1875 19.734375 -26.269531 19.734375 -24.15625 L 19.734375 0 Z M 5 0 "/></g></g></g><g fill="#ffffff" fill-opacity="1"><g transform="translate(290.945875, 157.933536)"><g><path d="M 23.578125 -43.984375 C 26.015625 -43.984375 28.425781 -43.703125 30.8125 -43.140625 C 33.207031 -42.585938 34.988281 -42.035156 36.15625 -41.484375 L 37.90625 -40.65625 L 33.0625 -30.984375 C 29.738281 -32.765625 26.578125 -33.65625 23.578125 -33.65625 C 21.910156 -33.65625 20.726562 -33.472656 20.03125 -33.109375 C 19.332031 -32.742188 18.984375 -32.0625 18.984375 -31.0625 C 18.984375 -30.84375 19.007812 -30.617188 19.0625 -30.390625 C 19.125 -30.171875 19.238281 -29.960938 19.40625 -29.765625 C 19.570312 -29.578125 19.722656 -29.414062 19.859375 -29.28125 C 20.003906 -29.144531 20.242188 -28.992188 20.578125 -28.828125 C 20.910156 -28.660156 21.171875 -28.535156 21.359375 -28.453125 C 21.554688 -28.367188 21.875 -28.242188 22.3125 -28.078125 C 22.757812 -27.910156 23.09375 -27.785156 23.3125 -27.703125 C 23.539062 -27.617188 23.914062 -27.492188 24.4375 -27.328125 C 24.96875 -27.160156 25.375 -27.046875 25.65625 -26.984375 C 27.375 -26.484375 28.867188 -25.925781 30.140625 -25.3125 C 31.421875 -24.707031 32.769531 -23.875 34.1875 -22.8125 C 35.601562 -21.757812 36.703125 -20.425781 37.484375 -18.8125 C 38.265625 -17.207031 38.65625 -15.378906 38.65625 -13.328125 C 38.65625 -3.609375 31.90625 1.25 18.40625 1.25 C 15.351562 1.25 12.453125 0.78125 9.703125 -0.15625 C 6.953125 -1.101562 4.96875 -2.050781 3.75 -3 L 1.921875 -4.5 L 7.90625 -14.578125 C 8.351562 -14.191406 8.9375 -13.734375 9.65625 -13.203125 C 10.382812 -12.671875 11.691406 -11.945312 13.578125 -11.03125 C 15.460938 -10.113281 17.097656 -9.65625 18.484375 -9.65625 C 21.546875 -9.65625 23.078125 -10.6875 23.078125 -12.75 C 23.078125 -13.6875 22.6875 -14.421875 21.90625 -14.953125 C 21.125 -15.484375 19.800781 -16.082031 17.9375 -16.75 C 16.082031 -17.414062 14.628906 -18.023438 13.578125 -18.578125 C 10.910156 -19.960938 8.800781 -21.53125 7.25 -23.28125 C 5.695312 -25.03125 4.921875 -27.347656 4.921875 -30.234375 C 4.921875 -34.566406 6.597656 -37.941406 9.953125 -40.359375 C 13.316406 -42.773438 17.859375 -43.984375 23.578125 -43.984375 Z M 23.578125 -43.984375 "/></g></g></g><g fill="#ffffff" fill-opacity="1"><g transform="translate(327.764432, 157.933536)"><g><path d="M 48.96875 -37.4375 C 52.96875 -33.082031 54.96875 -27.738281 54.96875 -21.40625 C 54.96875 -15.070312 52.96875 -9.710938 48.96875 -5.328125 C 44.976562 -0.941406 39.898438 1.25 33.734375 1.25 C 28.066406 1.25 23.398438 -0.523438 19.734375 -4.078125 L 19.734375 21.65625 L 5 21.65625 L 5 -42.734375 L 19.578125 -42.734375 L 19.578125 -37.90625 L 19.734375 -37.90625 C 23.398438 -41.957031 28.066406 -43.984375 33.734375 -43.984375 C 39.898438 -43.984375 44.976562 -41.800781 48.96875 -37.4375 Z M 36.4375 -14.15625 C 38.351562 -16.050781 39.3125 -18.46875 39.3125 -21.40625 C 39.3125 -24.351562 38.394531 -26.753906 36.5625 -28.609375 C 34.726562 -30.472656 32.316406 -31.40625 29.328125 -31.40625 C 26.429688 -31.40625 24.050781 -30.457031 22.1875 -28.5625 C 20.332031 -26.675781 19.40625 -24.289062 19.40625 -21.40625 C 19.40625 -18.46875 20.363281 -16.050781 22.28125 -14.15625 C 24.195312 -12.269531 26.546875 -11.328125 29.328125 -11.328125 C 32.148438 -11.328125 34.519531 -12.269531 36.4375 -14.15625 Z M 36.4375 -14.15625 "/></g></g></g><g fill="#ffffff" fill-opacity="1"><g transform="translate(380.493472, 157.933536)"><g><path d="M 9.03125 -5.078125 C 4.289062 -9.296875 1.921875 -14.707031 1.921875 -21.3125 C 1.921875 -27.925781 4.390625 -33.359375 9.328125 -37.609375 C 14.273438 -41.859375 20.382812 -43.984375 27.65625 -43.984375 C 34.820312 -43.984375 40.859375 -41.84375 45.765625 -37.5625 C 50.679688 -33.289062 53.140625 -27.878906 53.140625 -21.328125 C 53.140625 -14.773438 50.738281 -9.375 45.9375 -5.125 C 41.132812 -0.875 35.039062 1.25 27.65625 1.25 C 19.988281 1.25 13.78125 -0.859375 9.03125 -5.078125 Z M 20.453125 -28.5625 C 18.535156 -26.675781 17.578125 -24.257812 17.578125 -21.3125 C 17.578125 -18.375 18.492188 -15.972656 20.328125 -14.109375 C 22.160156 -12.253906 24.578125 -11.328125 27.578125 -11.328125 C 30.460938 -11.328125 32.832031 -12.269531 34.6875 -14.15625 C 36.550781 -16.050781 37.484375 -18.441406 37.484375 -21.328125 C 37.484375 -24.265625 36.523438 -26.675781 34.609375 -28.5625 C 32.691406 -30.457031 30.347656 -31.40625 27.578125 -31.40625 C 24.742188 -31.40625 22.367188 -30.457031 20.453125 -28.5625 Z M 20.453125 -28.5625 "/></g></g></g><g fill="#ffffff" fill-opacity="1"><g transform="translate(431.389861, 157.933536)"><g><path d="M 5 0 L 5 -42.734375 L 19.734375 -42.734375 L 19.734375 -36.5625 L 19.90625 -36.5625 C 20.019531 -36.789062 20.203125 -37.070312 20.453125 -37.40625 C 20.703125 -37.738281 21.242188 -38.320312 22.078125 -39.15625 C 22.910156 -39.988281 23.796875 -40.734375 24.734375 -41.390625 C 25.679688 -42.054688 26.90625 -42.65625 28.40625 -43.1875 C 29.90625 -43.71875 31.429688 -43.984375 32.984375 -43.984375 C 34.597656 -43.984375 36.179688 -43.757812 37.734375 -43.3125 C 39.285156 -42.863281 40.425781 -42.421875 41.15625 -41.984375 L 42.3125 -41.3125 L 36.15625 -28.828125 C 34.320312 -30.378906 31.765625 -31.15625 28.484375 -31.15625 C 26.710938 -31.15625 25.1875 -30.765625 23.90625 -29.984375 C 22.625 -29.210938 21.71875 -28.269531 21.1875 -27.15625 C 20.664062 -26.039062 20.289062 -25.09375 20.0625 -24.3125 C 19.84375 -23.539062 19.734375 -22.929688 19.734375 -22.484375 L 19.734375 0 Z M 5 0 "/></g></g></g><g fill="#ffffff" fill-opacity="1"><g transform="translate(468.70822, 157.933536)"><g><path d="M 7.5 -42.734375 L 7.5 -58.640625 L 22.234375 -58.640625 L 22.234375 -42.734375 L 31.234375 -42.734375 L 31.234375 -31.484375 L 22.234375 -31.484375 L 22.234375 -17.90625 C 22.234375 -13.96875 23.347656 -12 25.578125 -12 C 26.128906 -12 26.707031 -12.109375 27.3125 -12.328125 C 27.925781 -12.546875 28.398438 -12.769531 28.734375 -13 L 29.234375 -13.328125 L 32.90625 -1.421875 C 29.738281 0.359375 26.128906 1.25 22.078125 1.25 C 19.296875 1.25 16.90625 0.765625 14.90625 -0.203125 C 12.90625 -1.179688 11.390625 -2.488281 10.359375 -4.125 C 9.335938 -5.757812 8.601562 -7.476562 8.15625 -9.28125 C 7.71875 -11.09375 7.5 -13.023438 7.5 -15.078125 L 7.5 -31.484375 L 1.328125 -31.484375 L 1.328125 -42.734375 Z M 7.5 -42.734375 "/></g></g></g><g fill="#ffffff" fill-opacity="1"><g transform="translate(497.452997, 157.933536)"><g/></g></g></svg>